# xmcd CD database file
#
# Track frame offsets:
#	150
#	11924
#	25689
#	39283
#	50931
#	63198
#	79158
#	89033
#	102880
#	112544
#	125319
#	139608
#
# Disc length: 2074 seconds
#
# Revision: 1
# Processed by: cddbd v1.5.2PL0 Copyright (c) Steve Scherf et al.
# Submitted via: CDex 1.70beta2
#
DISCID=9308180c
DTITLE=Burl Ives - The Versatile Burl Ives
DYEAR=1961
DGENRE=Country
TTITLE0=Mockin' Bird Hill
TTITLE1=The Long Black Veil
TTITLE2=Delia
TTITLE3=Forty Hour Week
TTITLE4=I Walk The Line
TTITLE5=Royal Telephone
TTITLE6=Shangheid
TTITLE7=Lenora, Let Your Hair Hang Down
TTITLE8=A Little Bitty Tear
TTITLE9=Oh, My Side
TTITLE10=Mama Don't Want No Peas An' Rice An' Cocoanut Oil
TTITLE11=The Almighty Dollar Bill
EXTD=YEAR: 1961
EXTT0=
EXTT1=
EXTT2=
EXTT3=
EXTT4=
EXTT5=
EXTT6=
EXTT7=
EXTT8=
EXTT9=
EXTT10=
EXTT11=
PLAYORDER=
